<?xml version="1.0" standalone="no"?>
<!DOCTYPE svg PUBLIC "-//W3C//DTD SVG 20010904//EN"
 "http://www.w3.org/TR/2001/REC-SVG-20010904/DTD/svg10.dtd">
<svg version="1.0" xmlns="http://www.w3.org/2000/svg"
 width="512.000000pt" height="512.000000pt" viewBox="0 0 512.000000 512.000000"
 preserveAspectRatio="xMidYMid meet">
<metadata>
Created by potrace 1.14, written by Peter Selinger 2001-2017
</metadata>
<g transform="translate(0.000000,512.000000) scale(0.100000,-0.100000)"
fill="#000000" stroke="none">
<path d="M665 4636 c-136 -34 -246 -143 -297 -295 -22 -65 -23 -76 -28 -756
-3 -379 -7 -671 -8 -649 -1 26 -9 47 -19 55 -17 13 -17 12 -4 -4 12 -15 12
-20 2 -27 -9 -5 -10 -10 -2 -14 6 -4 11 -13 11 -19 0 -7 -4 -6 -10 3 -6 10
-10 11 -10 3 0 -7 9 -22 20 -33 11 -11 16 -20 11 -20 -6 0 -13 5 -16 10 -10
16 -25 12 -19 -5 4 -8 15 -15 25 -15 18 0 19 -32 21 -1022 l3 -1023 23 -59
c47 -126 123 -211 239 -268 35 -17 86 -33 114 -36 43 -4 50 -7 46 -23 -3 -11
-1 -17 3 -14 5 3 14 -1 22 -8 7 -8 19 -12 27 -9 8 3 11 0 7 -6 -3 -6 -2 -13 4
-17 5 -3 10 -1 10 6 0 7 3 9 7 6 3 -4 12 -2 20 4 10 9 13 7 13 -6 0 -11 5 -15
16 -11 8 3 12 2 9 -4 -6 -10 10 -14 53 -12 12 1 20 -3 17 -8 -4 -6 4 -8 17 -6
13 2 40 -3 62 -10 21 -8 43 -11 49 -7 6 3 7 1 3 -5 -7 -12 23 -17 67 -14 10 1
26 -2 35 -7 10 -5 24 -6 33 -1 8 5 21 5 29 0 7 -4 24 -4 37 1 14 5 23 5 23 -1
0 -12 53 -8 62 5 5 7 8 7 8 0 0 -5 11 -11 25 -11 14 -1 25 1 25 5 0 4 18 7 40
6 22 0 40 -3 40 -7 0 -3 9 -4 20 -1 11 3 28 -1 37 -8 11 -10 14 -10 9 -2 -5 9
0 12 18 11 15 -1 26 -5 26 -9 0 -4 27 -9 60 -11 33 -1 60 0 60 4 0 4 6 5 13 2
23 -9 92 -11 124 -4 19 5 36 3 44 -4 9 -8 10 -8 6 0 -5 8 7 12 38 11 24 0 42
-4 39 -8 -2 -4 4 -6 13 -4 10 2 18 4 18 5 0 1 10 3 23 4 12 2 22 0 22 -3 0 -3
13 -6 30 -7 16 -1 27 3 24 8 -5 8 26 4 64 -8 6 -2 12 0 12 4 0 11 80 9 80 -3
0 -5 5 -3 10 5 5 8 10 11 10 5 0 -6 28 -10 65 -10 36 0 65 3 65 8 0 4 5 5 10
2 6 -4 18 -1 27 7 15 11 16 11 10 -4 -7 -20 8 -25 19 -7 5 8 10 6 16 -5 8 -13
13 -14 31 -4 12 6 42 13 67 14 25 1 57 5 73 8 15 2 25 1 22 -4 -6 -10 62 -6
89 5 13 6 17 5 12 -3 -4 -7 1 -9 16 -6 30 5 88 6 113 1 11 -2 23 1 28 7 5 8
10 7 16 -3 6 -9 10 -10 16 -2 5 9 11 9 23 -1 12 -10 14 -10 8 0 -4 7 -2 12 8
12 8 0 17 -4 20 -9 3 -5 17 -11 31 -13 15 -3 22 -1 18 5 -4 6 4 7 23 2 40 -11
184 -13 190 -3 3 5 12 4 19 -2 8 -7 20 -8 27 -4 14 9 177 9 185 0 9 -9 44 14
38 25 -9 14 2 11 19 -7 10 -10 16 -11 16 -3 0 8 4 8 15 -1 12 -10 19 -10 27
-2 19 19 32 14 17 -6 -13 -15 -12 -16 3 -4 21 17 66 23 74 10 4 -5 17 -7 31
-3 14 3 22 2 20 -2 -3 -4 23 -8 58 -8 35 0 61 3 58 8 -2 4 15 5 39 3 24 -2 53
0 64 5 13 4 26 3 33 -4 6 -6 11 -7 11 -1 0 6 17 9 38 8 20 -1 47 3 60 7 13 5
21 5 18 0 -9 -14 144 3 177 20 10 6 25 8 33 5 8 -3 14 -1 14 3 0 5 9 7 20 4
14 -4 20 0 20 11 0 10 4 15 9 11 5 -3 13 -1 16 5 4 6 15 8 26 5 11 -4 19 -2
19 5 0 6 4 9 9 5 6 -3 19 4 29 15 11 12 30 22 43 22 13 1 34 10 47 21 12 11
22 16 22 11 0 -5 5 -1 11 9 6 9 14 15 19 12 5 -3 12 0 16 6 4 8 3 9 -4 5 -7
-4 -12 -4 -12 1 1 14 27 43 40 43 7 0 10 7 6 16 -3 8 -2 12 4 9 9 -6 19 21 23
62 0 12 5 19 11 16 5 -4 7 1 3 10 -4 11 -1 17 7 17 9 0 12 7 9 20 -3 11 0 20
6 20 13 0 28 35 36 83 3 18 13 38 23 46 14 11 14 13 1 8 -9 -3 -16 0 -16 9 0
7 4 11 9 8 4 -3 8 4 8 15 0 12 -4 21 -10 21 -5 0 -10 5 -10 11 0 5 5 7 10 4 6
-3 10 -2 10 4 0 5 -5 11 -12 13 -6 2 -13 14 -15 27 -2 12 1 20 6 17 5 -3 12 1
15 10 4 10 2 13 -6 8 -7 -5 -8 -3 -2 7 4 8 8 27 7 44 -2 28 -2 29 6 5 l7 -25
6 28 c3 15 1 27 -5 27 -5 0 -5 6 2 14 8 10 8 16 -2 25 -15 12 -16 38 -2 61 5
9 4 15 -3 18 -7 2 -8 11 -2 27 5 14 5 36 0 54 -6 22 -5 31 3 31 7 0 6 4 -3 10
-8 5 -11 10 -5 10 5 0 4 5 -2 11 -13 13 -6 42 8 34 4 -3 2 9 -6 28 -11 27 -11
37 -2 47 7 7 7 10 1 7 -6 -3 -11 0 -11 8 0 8 4 12 8 10 4 -3 10 2 13 11 3 8 2
13 -3 10 -5 -3 -11 1 -15 9 -3 8 -1 17 4 20 8 5 10 19 12 98 1 15 4 27 8 27 4
0 11 7 14 16 3 8 2 12 -4 9 -6 -3 -10 -2 -10 4 0 5 -3 17 -7 27 -4 11 -3 15 5
10 7 -4 10 1 9 14 -1 11 -4 20 -8 20 -4 0 -10 7 -13 16 -3 8 -2 12 4 9 6 -3 7
1 4 9 -3 9 -9 14 -13 12 -6 -4 -7 11 -2 74 1 20 3 22 11 10 9 -13 10 -13 11 0
1 8 1 18 0 23 0 4 4 7 11 7 6 0 3 7 -8 15 -11 8 -14 15 -7 15 15 0 13 21 -2
32 -6 5 -5 8 2 8 16 0 -5 50 -21 50 -7 0 -6 3 1 8 7 5 15 22 17 40 2 17 -1 29
-5 26 -5 -3 -6 9 -3 26 4 19 2 30 -5 30 -9 0 -9 5 0 21 9 17 8 20 -2 14 -9 -6
-11 -3 -6 8 3 10 2 17 -3 17 -6 0 -6 9 0 24 5 13 6 27 3 30 -4 3 0 6 8 6 12 0
12 2 0 9 -10 7 -11 13 -1 31 6 12 9 28 6 35 -3 10 0 12 12 8 13 -4 13 -2 -3
11 -14 12 -16 19 -7 22 6 3 9 11 5 17 -4 6 -6 26 -5 45 2 25 -1 32 -10 26 -7
-4 -5 1 4 12 10 12 14 25 9 34 -7 13 -7 76 -1 90 3 7 3 7 -4 64 -4 27 -12 58
-17 69 -8 14 -8 17 0 13 6 -4 11 -3 11 3 0 5 -6 12 -12 14 -10 4 -10 6 0 6 10
1 10 6 1 22 -8 16 -8 20 1 14 9 -6 9 -3 1 13 -15 28 -14 35 4 28 8 -3 15 -1
15 4 0 6 -4 10 -8 10 -4 0 -8 9 -8 19 0 11 4 17 8 15 12 -8 10 10 -3 23 -7 7
-5 15 6 27 9 9 12 16 7 16 -6 0 -9 11 -7 25 1 14 -3 25 -9 25 -6 0 -5 4 2 9
11 7 11 9 0 13 -8 4 -13 18 -12 34 1 16 3 29 4 29 1 0 3 8 5 17 2 11 -2 15
-11 11 -10 -3 -13 3 -11 25 1 17 7 30 12 29 6 -1 10 5 10 13 0 8 4 21 8 27 6
9 3 11 -7 7 -13 -5 -14 0 -6 28 13 42 12 51 0 43 -6 -3 -7 1 -4 9 3 9 9 14 13
12 3 -2 6 15 6 39 1 24 -3 41 -8 38 -5 -3 -7 3 -6 13 2 11 0 25 -5 33 -6 9 -5
12 1 8 6 -4 14 0 17 9 3 8 2 13 -2 10 -4 -2 -8 22 -9 55 0 32 3 62 8 65 5 3 6
11 2 17 -10 15 -11 127 -2 121 4 -2 9 3 13 11 3 9 0 15 -10 15 -12 0 -12 4 -4
20 7 14 7 20 0 20 -5 0 -10 4 -10 10 0 5 8 7 18 4 9 -2 8 0 -5 7 -18 10 -21
18 -18 56 3 31 0 46 -10 50 -11 4 -12 10 -5 23 8 16 8 47 0 70 -1 3 -1 15 0
27 0 12 -6 33 -14 46 -9 13 -13 27 -9 30 3 4 1 7 -6 7 -8 0 -11 7 -7 15 3 8 0
14 -7 12 -7 -1 -11 4 -10 10 2 7 -2 12 -9 10 -8 -1 -15 20 -19 63 -19 178
-122 315 -288 382 l-56 23 -1860 2 c-1448 1 -1871 -1 -1910 -11z m3260 -129
c18 -15 28 -36 32 -64 5 -39 2 -46 -31 -79 -31 -31 -41 -36 -69 -30 -59 11
-98 78 -80 139 16 57 99 76 148 34z m266 13 c22 -13 49 -61 49 -90 0 -52 -49
-100 -101 -100 -12 0 -36 15 -55 34 -67 67 -32 165 59 166 16 0 37 -5 48 -10z
m300 -27 c37 -38 32 -97 -9 -134 -18 -16 -41 -29 -52 -29 -80 0 -130 103 -79
161 20 24 20 24 9 1 l-11 -22 36 17 c19 9 35 22 35 28 0 20 46 5 71 -22z
m-3789 -30 c37 -33 10 -103 -41 -103 -20 0 -61 40 -61 60 0 50 64 78 102 43z
m202 1 c35 -34 8 -104 -40 -104 -30 0 -66 46 -58 74 13 44 68 61 98 30z m206
-4 c11 -11 20 -29 20 -40 0 -26 -34 -60 -62 -60 -50 0 -76 63 -41 102 21 24
58 23 83 -2z m3632 -1907 c-1 -1069 -6 -1686 -13 -1717 -25 -128 -117 -244
-237 -303 l-57 -28 -1875 0 -1875 0 -67 33 c-118 58 -199 164 -227 300 -8 37
-11 541 -11 1717 l0 1665 2183 0 2182 0 -3 -1667z"/>
<path d="M3800 4427 c0 -20 40 -58 58 -55 8 2 17 9 20 17 3 9 -1 11 -17 6 -16
-5 -23 -1 -33 19 -12 28 -28 35 -28 13z"/>
<path d="M3896 4415 c-10 -28 -7 -39 7 -26 8 6 16 9 19 6 3 -3 11 1 18 10 7 9
8 15 2 15 -6 0 -17 3 -25 6 -8 3 -17 -2 -21 -11z"/>
<path d="M4125 4492 c-16 -11 -36 -78 -29 -96 7 -19 25 -21 42 -4 8 8 15 8 26
-2 41 -33 64 32 26 72 -18 19 -20 20 -20 4 0 -9 -4 -14 -10 -11 -5 3 -10 15
-10 26 0 20 -8 24 -25 11z"/>
<path d="M4364 4433 c-13 -49 56 -80 100 -44 20 17 21 51 1 51 -8 0 -15 -6
-15 -14 0 -14 -21 -26 -46 -26 -9 0 -14 11 -14 30 0 37 -17 39 -26 3z"/>
<path d="M2440 3959 c-159 -85 -439 -235 -473 -253 -47 -26 -31 -46 85 -106
60 -30 108 -58 108 -61 0 -3 -26 -17 -57 -32 -159 -73 -332 -224 -427 -372
-33 -52 -116 -225 -116 -241 1 -5 13 18 29 51 41 89 158 262 221 326 109 111
322 249 385 249 l25 0 0 -120 0 -120 41 -30 c62 -44 188 -89 272 -96 84 -7
166 10 261 56 105 50 106 52 106 190 l0 120 26 0 c14 0 47 -7 75 -16 l49 -16
0 -53 c0 -48 -2 -53 -25 -59 l-25 -6 0 -165 0 -165 -128 0 c-140 0 -228 -16
-276 -52 -23 -17 -32 -19 -45 -9 -9 6 -36 21 -61 34 -43 21 -59 22 -337 25
-277 3 -295 2 -339 -17 -26 -12 -62 -21 -80 -21 -25 0 -44 -9 -72 -34 l-37
-34 -3 -509 c-2 -468 -1 -511 15 -543 27 -53 53 -60 219 -62 142 -2 146 -3
155 -25 5 -12 41 -60 81 -105 129 -146 120 -126 112 -254 l-7 -112 39 -11 c23
-7 146 -11 305 -11 244 0 363 9 380 28 3 4 2 54 -2 112 -4 57 -4 110 -1 117 4
6 56 65 117 130 l109 118 128 7 c141 8 178 20 203 68 22 42 23 1002 1 1055
-17 41 -51 64 -102 71 -22 3 -57 12 -78 21 -22 8 -64 13 -95 12 l-56 -3 4 167
c2 139 1 167 -11 167 -32 0 -51 25 -43 58 l7 32 40 -22 c72 -41 205 -175 268
-271 76 -115 156 -270 174 -339 8 -29 15 -43 15 -31 2 48 -113 301 -179 398
-69 100 -214 236 -297 279 -32 16 -33 19 -33 75 l0 59 45 26 c49 29 57 54 24
74 -12 7 -91 50 -177 94 -87 44 -216 111 -289 149 -72 38 -133 69 -135 69 -1
0 -55 -28 -118 -61z m671 -281 c-3 -3 -28 -2 -56 2 -27 5 -142 14 -255 21
-113 6 -208 16 -211 21 -4 5 -17 8 -30 6 -30 -4 -38 -42 -12 -56 10 -5 110
-12 223 -16 113 -3 217 -9 233 -12 26 -6 24 -9 -45 -49 -40 -23 -146 -80 -235
-127 l-162 -85 -128 67 c-70 37 -195 104 -276 148 l-148 79 203 108 c112 59
235 124 273 145 l70 37 281 -141 c154 -78 278 -144 275 -148z m-64 -165 c-6
-5 -77 24 -77 31 0 3 17 14 38 25 l37 19 3 -35 c2 -19 1 -37 -1 -40z m-736
-89 c31 -16 56 -11 29 6 -43 27 15 3 113 -47 l111 -57 129 68 c71 37 126 62
122 56 -6 -9 -2 -9 13 -1 26 14 32 -1 32 -84 0 -73 -9 -83 -115 -128 -106 -44
-172 -52 -261 -32 -41 10 -108 35 -147 54 l-72 36 -2 90 c-2 66 0 85 8 72 5
-9 24 -24 40 -33z m789 -199 l0 -105 -25 0 -25 0 0 105 0 105 25 0 25 0 0
-105z m5 -180 c0 -15 -8 -21 -32 -23 -30 -3 -33 -1 -33 23 0 24 3 26 33 23 24
-2 32 -8 32 -23z m-629 -74 l64 -30 0 -495 c0 -273 -2 -496 -4 -496 -3 0 -21
10 -41 22 -54 31 -137 48 -242 48 -87 0 -94 2 -108 24 -21 32 -84 74 -115 76
-74 6 -100 -11 -100 -66 0 -40 -24 -54 -90 -54 -30 0 -43 6 -59 26 -20 26 -21
37 -21 414 0 213 3 415 6 449 6 54 11 64 38 84 28 20 46 22 221 28 304 10 376
5 451 -30z m524 16 c0 -9 18 -12 73 -9 39 3 74 8 75 13 2 5 30 9 61 9 44 0 66
-6 92 -23 l34 -23 3 -456 2 -456 -26 -21 c-31 -24 -44 -25 -113 -9 -50 11 -51
12 -51 50 0 34 -3 38 -25 38 -22 0 -25 4 -25 33 0 26 16 55 71 128 83 109 99
142 92 187 -6 40 -23 53 -23 17 0 -40 -23 -85 -76 -145 -73 -85 -104 -139
-104 -182 l0 -38 -95 0 -95 0 0 27 c0 14 -8 50 -17 79 l-16 53 38 96 c44 107
66 135 90 115 13 -11 15 -26 9 -82 -5 -47 -3 -68 4 -68 7 0 35 23 64 50 l53
51 3 157 c2 127 6 159 18 169 9 6 22 9 30 6 11 -4 14 -38 14 -174 0 -137 3
-169 14 -169 21 0 26 33 26 198 0 139 -2 154 -20 172 -11 11 -31 20 -45 20
-14 0 -25 4 -25 10 0 20 -76 94 -115 111 -127 58 -285 -45 -285 -186 0 -147
167 -240 304 -171 l48 24 -7 -71 c-7 -74 -18 -107 -35 -107 -6 0 -10 17 -10
38 0 42 -7 55 -35 69 -46 24 -78 -9 -134 -133 -45 -101 -48 -123 -26 -204 20
-74 19 -80 -10 -80 -22 0 -25 -4 -25 -40 0 -35 -3 -40 -27 -46 -52 -11 -98
-27 -135 -46 l-38 -18 0 494 0 494 35 17 c83 39 111 44 248 44 105 1 137 -2
137 -12z m-1260 -35 c0 -19 -25 -59 -50 -80 -13 -12 -12 -13 8 -9 l22 5 0
-409 c0 -456 0 -452 66 -484 28 -13 50 -16 99 -10 53 5 63 4 69 -10 5 -15 -8
-16 -138 -13 -79 2 -142 0 -139 -5 15 -25 74 -39 184 -44 83 -4 119 -10 123
-19 7 -18 -87 -28 -187 -20 -94 8 -111 16 -125 55 -14 40 -15 955 -1 998 15
48 69 83 69 45z m1680 -10 l28 -29 1 -464 c1 -255 -2 -469 -6 -475 -19 -26
-57 -34 -172 -34 -114 0 -121 1 -121 20 0 11 1 20 3 20 2 0 28 -5 59 -10 64
-12 98 -3 141 38 l27 26 0 414 0 414 26 -6 c28 -7 27 -4 -13 50 -24 33 -30 64
-12 64 6 0 23 -13 39 -28z m-416 -70 c39 -23 79 -81 70 -101 -4 -9 -10 -39
-13 -67 -4 -29 -13 -59 -21 -69 -25 -30 -73 -48 -127 -47 -97 1 -157 60 -156
154 2 125 136 195 247 130z m-820 -926 c80 -82 158 -151 201 -178 74 -48 121
-88 146 -127 17 -27 39 -22 39 9 0 36 53 83 137 122 109 50 123 71 123 189 l0
87 31 6 c17 3 80 6 140 6 l109 0 0 -42 c0 -58 -8 -66 -65 -71 l-50 -3 53 -2
52 -2 0 -61 0 -61 -120 -126 c-101 -107 -120 -132 -120 -158 0 -31 -2 -32 -47
-37 -80 -8 -321 -9 -439 -2 l-110 7 -12 43 c-8 31 -36 70 -102 143 -85 95
-120 154 -120 202 0 9 -14 45 -32 79 -27 52 -30 64 -20 86 9 19 19 25 43 25
27 0 49 -19 163 -134z m215 18 c25 -7 54 -25 66 -40 19 -24 31 -28 86 -32 49
-2 73 1 101 16 25 13 33 23 27 29 -7 7 0 14 22 22 54 19 69 15 69 -18 0 -24
-5 -30 -29 -34 -17 -4 -32 -14 -36 -26 -8 -26 -55 -41 -130 -41 -90 0 -122 9
-158 44 -31 30 -31 31 -9 34 51 8 5 22 -72 22 -76 0 -84 2 -107 26 l-24 26 75
-7 c41 -4 95 -13 119 -21z m1033 -73 c-22 -30 -62 -40 -167 -40 -81 -1 -115 6
-115 24 0 13 83 25 174 25 38 0 61 6 86 24 29 20 36 21 38 9 2 -9 -5 -27 -16
-42z m-1062 -29 c0 -11 20 -26 52 -41 46 -20 63 -23 154 -19 l102 3 -47 -26
c-25 -15 -53 -39 -60 -53 -18 -32 -26 -33 -47 -1 -9 14 -49 44 -88 67 -39 22
-81 50 -94 62 -21 19 -22 21 -5 27 23 8 33 2 33 -19z m361 -32 c-13 -11 -28
-20 -35 -20 -6 0 3 9 19 20 38 25 47 25 16 0z m-391 -431 c0 -59 -1 -61 -22
-55 -13 3 -33 6 -45 6 -21 0 -23 5 -23 55 l0 55 45 0 45 0 0 -61z m534 30 c13
-67 9 -79 -28 -79 -19 0 -41 -3 -50 -6 -14 -5 -16 3 -16 55 l0 61 44 0 c41 0
44 -2 50 -31z m-134 -28 l0 -48 -92 -7 c-50 -3 -131 -6 -180 -6 l-88 0 0 55 0
55 180 0 180 0 0 -49z"/>
<path d="M2595 3310 l-20 -9 20 0 c11 0 29 4 40 9 l20 9 -20 0 c-11 0 -29 -4
-40 -9z"/>
<path d="M2167 2823 c-9 -9 -8 -25 2 -42 8 -12 12 -12 25 -2 22 19 21 51 -2
51 -10 0 -22 -3 -25 -7z"/>
<path d="M2023 2603 c9 -2 23 -2 30 0 6 3 -1 5 -18 5 -16 0 -22 -2 -12 -5z"/>
<path d="M2418 2603 c7 -3 16 -2 19 1 4 3 -2 6 -13 5 -11 0 -14 -3 -6 -6z"/>
<path d="M1871 2536 c10 -9 555 -15 569 -6 10 6 -82 10 -279 10 -162 0 -292
-2 -290 -4z"/>
<path d="M1983 2472 c-62 -1 -113 -6 -113 -10 0 -6 225 -6 485 1 72 2 50 4
-80 7 -99 3 -231 4 -292 2z"/>
<path d="M1920 2400 c34 -11 541 -11 515 0 -11 5 -137 8 -280 8 -145 0 -249
-4 -235 -8z"/>
<path d="M1915 2330 c-33 -4 75 -7 240 -7 165 0 275 3 245 6 -77 9 -412 10
-485 1z"/>
<path d="M1871 2256 c9 -10 579 -15 579 -6 0 6 -108 10 -292 10 -160 0 -289
-2 -287 -4z"/>
<path d="M2054 2183 c9 -9 395 -10 389 0 -2 4 -92 7 -200 7 -108 0 -193 -3
-189 -7z"/>
<path d="M867 3993 c-11 -10 -8 -113 3 -113 6 0 10 6 10 14 0 8 15 17 34 20
42 8 56 38 30 67 -17 18 -64 26 -77 12z m58 -38 c0 -30 -39 -27 -43 3 -3 20 0
23 20 20 15 -2 23 -10 23 -23z"/>
<path d="M981 3933 c0 -38 3 -61 6 -53 2 8 7 21 9 29 3 11 12 7 34 -14 16 -16
33 -25 37 -22 3 4 -2 14 -13 21 -18 14 -18 15 -1 33 9 11 17 24 17 30 0 18
-36 43 -63 43 -27 0 -27 -1 -26 -67z m64 27 c0 -9 -11 -16 -27 -18 -27 -3 -38
14 -21 32 12 12 48 2 48 -14z"/>
<path d="M1090 3935 c0 -37 4 -65 10 -65 6 0 10 28 10 65 0 37 -4 65 -10 65
-6 0 -10 -28 -10 -65z"/>
<path d="M1131 3993 c0 -5 13 -35 28 -68 l28 -60 22 43 c33 65 42 92 30 92 -6
0 -18 -18 -27 -40 -9 -22 -19 -40 -22 -40 -3 0 -13 18 -22 40 -9 22 -21 40
-27 40 -6 0 -11 -3 -10 -7z"/>
<path d="M1266 3944 c-19 -41 -24 -60 -16 -68 8 -8 12 -4 16 12 8 29 47 29 67
0 12 -18 16 -19 16 -7 1 20 -39 119 -48 119 -4 0 -19 -25 -35 -56z m44 -4 c0
-11 -7 -20 -15 -20 -17 0 -18 2 -9 24 9 23 24 20 24 -4z"/>
<path d="M1350 3990 c0 -5 9 -10 20 -10 17 0 20 -7 20 -50 0 -27 5 -50 10 -50
6 0 10 23 10 50 0 43 3 50 20 50 11 0 20 5 20 10 0 6 -22 10 -50 10 -27 0 -50
-4 -50 -10z"/>
<path d="M1470 3940 l0 -60 46 0 c27 0 43 4 39 10 -3 6 -20 10 -36 10 -39 0
-34 23 7 31 29 7 26 10 -11 13 -11 0 -21 9 -23 19 -3 13 3 17 27 17 17 0 31 5
31 10 0 6 -18 10 -40 10 l-40 0 0 -60z"/>
<path d="M3798 3954 c-62 -32 -109 -80 -137 -140 -20 -41 -23 -60 -19 -124 7
-114 55 -188 156 -240 35 -19 55 -22 121 -19 73 4 84 7 138 44 33 23 72 61 90
89 l32 49 18 -33 c19 -34 154 -203 172 -214 6 -4 27 9 48 28 l38 35 -63 57
c-35 31 -85 75 -110 96 -26 21 -46 44 -45 51 2 7 -9 17 -23 23 -23 8 -26 15
-28 69 -3 65 -36 143 -78 182 -78 72 -220 94 -310 47z m185 -20 c43 -9 126
-81 148 -127 22 -49 25 -117 6 -117 -21 0 -37 22 -37 52 0 64 -62 130 -133
143 -79 15 -188 -60 -203 -139 -8 -43 2 -103 22 -134 13 -20 12 -25 -8 -52
-12 -17 -25 -30 -30 -30 -18 0 -59 81 -68 132 -9 60 5 138 31 176 22 31 74 71
120 92 43 20 66 20 152 4z m25 -109 c70 -59 78 -142 21 -201 -61 -63 -136 -66
-189 -9 -31 33 -39 118 -16 164 36 69 129 93 184 46z m116 -161 c28 -11 19
-61 -17 -100 l-33 -36 -11 25 c-10 21 -8 30 13 60 13 20 24 41 24 46 0 13 3
13 24 5z m-289 -100 c42 -27 93 -34 143 -19 25 8 47 13 48 12 1 -1 7 -12 13
-24 10 -21 8 -25 -21 -43 -64 -39 -147 -38 -220 3 -35 19 -49 37 -30 37 5 0
15 11 22 25 16 30 14 29 45 9z m551 -126 c4 -5 2 -14 -2 -18 -5 -5 -36 23 -69
63 l-59 72 62 -54 c34 -29 65 -57 68 -63z"/>
<path d="M1592 3823 c-7 -3 -19 -18 -28 -35 -31 -59 22 -117 82 -89 16 7 24
19 24 36 0 20 -5 25 -26 25 -23 0 -25 -2 -14 -15 16 -19 -1 -41 -24 -32 -51
20 -29 94 25 83 33 -6 39 8 10 24 -21 11 -29 11 -49 3z"/>
<path d="M730 3810 c0 -5 9 -10 20 -10 18 0 20 -7 20 -55 0 -30 5 -55 10 -55
6 0 10 25 10 55 0 48 2 55 20 55 11 0 20 5 20 10 0 6 -22 10 -50 10 -27 0 -50
-4 -50 -10z"/>
<path d="M850 3773 c0 -54 5 -65 37 -81 35 -19 64 13 71 76 4 43 2 52 -12 52
-13 0 -16 -11 -16 -50 0 -36 -4 -52 -15 -56 -26 -10 -45 16 -45 62 0 24 -4 44
-10 44 -5 0 -10 -21 -10 -47z"/>
<path d="M973 3808 c2 -7 11 -12 19 -10 16 2 28 -35 28 -84 0 -13 5 -24 10
-24 6 0 10 25 10 55 0 48 2 55 20 55 11 0 20 5 20 10 0 6 -25 10 -56 10 -40 0
-54 -3 -51 -12z"/>
<path d="M1099 3799 c-23 -23 -20 -60 8 -91 21 -23 65 -23 86 0 21 23 22 76 1
96 -22 22 -70 20 -95 -5z m75 -12 c38 -27 -2 -95 -41 -71 -22 14 -29 50 -13
70 15 17 31 18 54 1z"/>
<path d="M1240 3755 c0 -37 4 -65 10 -65 6 0 10 9 10 20 0 27 16 25 46 -7 13
-14 27 -23 31 -20 3 4 -2 16 -12 27 -17 19 -17 21 -2 38 35 38 14 72 -45 72
l-38 0 0 -65z m71 29 c10 -13 10 -17 -2 -25 -27 -17 -49 -10 -49 16 0 29 30
35 51 9z"/>
<path d="M1370 3755 c0 -37 4 -65 10 -65 6 0 10 28 10 65 0 37 -4 65 -10 65
-6 0 -10 -28 -10 -65z"/>
<path d="M1420 3755 c0 -37 4 -65 10 -65 6 0 10 19 10 43 l1 42 37 -43 c20
-23 40 -42 45 -42 11 0 8 130 -3 130 -5 0 -10 -18 -10 -40 l0 -40 -36 40 c-20
22 -40 40 -45 40 -5 0 -9 -29 -9 -65z"/>
<path d="M780 3013 c-21 -26 -21 -34 -18 -346 l3 -319 24 -19 c33 -27 131 -27
156 1 17 19 18 19 43 0 17 -14 40 -20 77 -20 47 0 56 4 80 31 l26 31 -3 194
c-2 107 -1 194 2 194 3 0 21 -46 39 -102 109 -335 118 -354 174 -343 57 12
115 42 122 64 8 26 -179 581 -202 599 -19 14 -76 7 -110 -14 -19 -12 -22 -11
-27 12 -12 47 -40 64 -106 64 -46 0 -65 -5 -79 -19 -19 -19 -20 -19 -37 0 -13
15 -31 19 -80 19 -56 0 -65 -3 -84 -27z m142 -20 c12 -11 18 -30 18 -60 l0
-43 -70 0 -70 0 0 50 c0 36 5 52 18 59 27 16 83 13 104 -6z m190 0 c12 -11 18
-30 18 -60 l0 -44 -72 3 -73 3 -3 37 c-2 27 3 43 17 57 26 26 87 28 113 4z
m188 -85 c11 -24 20 -48 20 -53 0 -12 -110 -69 -118 -61 -9 10 -30 101 -25
110 6 8 82 45 96 46 4 0 17 -19 27 -42z m-170 -248 l0 -200 -73 0 -73 0 -2
200 -2 200 75 0 75 0 0 -200z m-190 165 c0 -24 -2 -25 -70 -25 -68 0 -70 1
-70 25 0 24 2 25 70 25 68 0 70 -1 70 -25z m429 -117 c18 -57 39 -120 47 -141
21 -55 18 -65 -23 -82 -81 -34 -73 -42 -127 121 -27 82 -45 149 -40 151 5 2
29 14 54 28 25 13 48 24 51 24 3 1 20 -45 38 -101z m-431 -100 l3 -148 -71 0
-70 0 0 150 0 151 68 -3 67 -3 3 -147z m528 -213 c-2 -7 -25 -21 -51 -30 -52
-20 -68 -13 -80 35 -6 24 -2 27 52 47 l58 21 13 -30 c7 -17 11 -36 8 -43z
m-526 2 c0 -34 -19 -47 -70 -47 -51 0 -70 13 -70 47 0 22 4 23 70 23 66 0 70
-1 70 -23z m190 6 c0 -31 -16 -44 -57 -50 -51 -7 -83 10 -83 42 0 24 2 25 70
25 60 0 70 -2 70 -17z"/>
<path d="M1283 2724 c-21 -15 -21 -17 -6 -60 13 -38 18 -44 37 -38 35 11 40
20 30 66 -10 47 -27 56 -61 32z"/>
<path d="M3893 3025 c-17 -12 -27 -13 -42 -5 -11 5 -38 10 -61 10 -33 0 -48
-6 -71 -29 l-29 -29 0 -294 c0 -274 1 -295 20 -325 23 -38 54 -48 113 -38 23
4 58 5 77 4 19 -2 133 -4 253 -4 193 0 220 2 231 17 17 23 15 673 -3 691 -8 8
-79 13 -239 15 -194 2 -230 0 -249 -13z m127 -79 c0 -30 -4 -58 -10 -61 -5 -3
-10 -20 -10 -36 0 -29 -1 -30 -42 -27 l-43 3 -3 88 -3 87 56 0 55 0 0 -54z
m120 4 c0 -49 -1 -50 -29 -50 -16 0 -36 -3 -45 -6 -13 -5 -16 3 -16 50 l0 56
45 0 45 0 0 -50z m135 18 c2 -18 6 -53 8 -78 2 -26 4 -13 5 33 l2 77 35 0 35
0 0 -89 0 -89 -76 0 -76 -1 6 31 c5 24 2 31 -13 35 -21 5 -36 61 -26 93 5 16
15 20 50 20 42 0 44 -2 50 -32z m-417 10 c7 -7 12 -40 12 -80 l0 -68 -70 0
-70 0 0 64 c0 92 3 96 64 96 29 0 57 -5 64 -12z m152 -198 c24 -24 27 -75 5
-84 -8 -3 -15 -12 -15 -21 0 -11 -11 -15 -45 -15 l-45 0 0 64 c0 53 3 65 18
69 38 10 63 6 82 -13z m-142 -202 l-3 -213 -27 -9 c-17 -6 -42 -6 -65 0 l-38
9 -3 213 -2 212 70 0 70 0 -2 -212z m416 190 c3 -13 7 -32 9 -43 3 -11 5 -1 6
23 1 40 3 42 31 42 l30 0 0 -63 0 -63 -69 -1 c-60 -1 -70 1 -74 18 -5 17 -15
19 -92 19 -75 0 -86 2 -81 16 3 9 6 25 6 37 0 19 6 22 50 25 33 2 50 -1 50 -9
0 -8 4 -8 13 -1 15 12 43 19 84 21 26 1 34 -3 37 -21z m74 -273 l3 -141 -93 1
-93 0 0 78 c0 67 -2 77 -17 77 -16 0 -18 -11 -18 -81 l0 -80 -42 3 -43 3 -3
78 c-2 59 -6 77 -17 77 -12 0 -15 -16 -15 -75 0 -70 -1 -75 -24 -81 -13 -3
-37 -4 -52 -2 l-29 3 0 135 0 135 40 5 c22 3 121 5 220 5 l180 0 3 -140z"/>
<path d="M3810 2591 c0 -6 -14 -11 -31 -11 -37 0 -30 -16 11 -22 42 -6 58 6
37 27 -10 9 -17 12 -17 6z"/>
<path d="M4000 2560 c0 -46 -6 -44 137 -45 l83 0 0 43 0 42 -110 0 -110 0 0
-40z"/>
<path d="M1532 2799 c-7 -36 -12 -74 -11 -85 1 -10 7 15 15 56 8 41 12 80 10
85 -1 6 -8 -20 -14 -56z"/>
<path d="M890 2201 c0 -28 5 -51 10 -51 6 0 10 6 10 13 0 8 12 19 26 25 38 18
30 56 -13 60 l-33 3 0 -50z m48 17 c-5 -32 -28 -35 -28 -4 0 17 5 26 16 26 10
0 14 -7 12 -22z"/>
<path d="M982 2198 c1 -47 2 -48 5 -13 5 48 18 64 36 46 10 -10 9 -15 -4 -24
-15 -12 -15 -14 1 -35 19 -23 37 -31 23 -9 -4 6 -8 28 -8 47 0 31 -3 35 -27
38 -28 3 -28 3 -26 -50z"/>
<path d="M1073 2200 c0 -30 2 -43 4 -27 2 15 2 39 0 55 -2 15 -4 2 -4 -28z"/>
<path d="M1101 2242 c-1 -7 9 -32 20 -55 l22 -41 19 48 c10 27 16 51 13 54 -3
3 -10 -9 -16 -26 -14 -40 -21 -40 -42 1 -8 17 -16 26 -16 19z"/>
<path d="M1212 2233 c-7 -12 -17 -34 -22 -49 -9 -23 -8 -25 4 -15 17 14 37 11
53 -9 19 -23 16 6 -6 55 -17 38 -18 39 -29 18z m18 -34 c0 -5 -4 -9 -10 -9 -5
0 -10 7 -10 16 0 8 5 12 10 9 6 -3 10 -10 10 -16z"/>
<path d="M1272 2237 c9 -7 18 -31 21 -53 l4 -39 1 39 c1 24 9 44 20 52 15 12
12 13 -23 13 -35 0 -38 -1 -23 -12z"/>
<path d="M1340 2200 c0 -46 2 -50 24 -50 14 0 28 5 31 10 3 6 -3 10 -14 10
-29 0 -27 30 2 31 l22 1 -23 6 c-33 10 -31 26 4 33 28 6 27 7 -8 8 l-38 1 0
-50z"/>
<path d="M3660 2228 c0 -13 -3 -33 -6 -45 -4 -14 -2 -23 5 -23 6 0 11 6 11 14
0 8 11 17 25 20 28 7 34 40 9 50 -30 11 -44 6 -44 -16z m35 -8 c0 -7 -6 -15
-12 -17 -8 -3 -13 4 -13 17 0 13 5 20 13 18 6 -3 12 -11 12 -18z"/>
<path d="M3831 2234 c-26 -18 -25 -51 2 -68 39 -25 75 35 39 67 -17 15 -20 15
-41 1z m39 -20 c11 -12 10 -18 -3 -32 -16 -15 -18 -15 -34 0 -13 14 -14 20 -3
32 7 9 16 16 20 16 4 0 13 -7 20 -16z"/>
<path d="M3910 2240 c0 -5 4 -10 10 -10 5 0 7 -6 4 -13 -2 -7 0 -24 5 -38 9
-22 10 -21 10 14 1 20 6 37 11 37 6 0 10 5 10 10 0 6 -11 10 -25 10 -14 0 -25
-4 -25 -10z"/>
<path d="M3986 2237 c-38 -27 2 -96 42 -71 24 16 27 42 6 65 -20 23 -25 23
-48 6z m48 -24 c4 -9 0 -23 -9 -32 -13 -14 -17 -14 -31 1 -9 9 -14 24 -11 32
8 21 43 20 51 -1z"/>
<path d="M4073 2224 c-21 -32 -8 -58 31 -62 27 -3 43 16 33 40 -4 8 -8 5 -12
-9 -8 -25 -13 -27 -33 -14 -23 14 -10 46 21 49 15 2 25 8 22 13 -12 18 -45 9
-62 -17z"/>
<path d="M4161 2203 c1 -26 3 -40 6 -30 6 23 20 22 33 -3 13 -24 23 -25 44 -5
18 18 43 20 49 3 2 -7 7 -11 10 -8 6 6 -23 80 -32 80 -3 0 -15 -19 -25 -42
-17 -40 -19 -41 -32 -24 -9 12 -10 23 -4 31 12 14 1 31 -27 39 -22 7 -23 5
-22 -41z m39 17 c0 -5 -7 -10 -15 -10 -8 0 -15 5 -15 10 0 6 7 10 15 10 8 0
15 -4 15 -10z m80 -20 c0 -5 -4 -10 -10 -10 -5 0 -10 5 -10 10 0 6 5 10 10 10
6 0 10 -4 10 -10z"/>
<path d="M4450 2230 c0 -26 -46 -28 -53 -2 -4 14 -5 13 -5 -3 0 -11 4 -31 8
-45 8 -24 8 -24 9 -2 1 28 16 28 35 0 15 -22 16 -21 16 25 0 26 -2 47 -5 47
-3 0 -5 -9 -5 -20z"/>
<path d="M4483 2225 c8 -16 20 -41 25 -55 l11 -25 0 25 c1 14 8 36 17 48 20
30 13 38 -11 12 -17 -19 -18 -19 -37 3 l-19 22 14 -30z"/>
<path d="M3736 2213 c-9 -39 3 -67 15 -35 11 29 29 28 30 0 1 -22 1 -22 9 2 4
14 8 34 9 45 0 19 0 19 -13 3 -7 -10 -18 -18 -24 -18 -6 0 -12 8 -14 18 -3 11
-7 6 -12 -15z"/>
<path d="M4320 2205 c0 -34 1 -35 23 -24 43 23 44 59 1 59 -21 0 -24 -5 -24
-35z m40 10 c0 -8 -4 -15 -10 -15 -5 0 -10 7 -10 15 0 8 5 15 10 15 6 0 10 -7
10 -15z"/>
<path d="M765 2110 c4 -6 11 -8 16 -5 5 4 9 -12 9 -34 0 -22 5 -43 10 -46 6
-4 10 12 10 40 0 26 4 44 9 40 5 -3 12 -1 16 5 4 6 -10 10 -35 10 -25 0 -39
-4 -35 -10z"/>
<path d="M853 2084 c8 -45 24 -66 51 -62 26 4 47 71 28 90 -9 9 -12 2 -12 -31
0 -38 -2 -42 -22 -39 -19 2 -24 10 -26 41 -2 20 -8 37 -14 37 -7 0 -8 -13 -5
-36z"/>
<path d="M950 2110 c0 -5 7 -10 15 -10 11 0 15 -11 15 -40 0 -22 5 -40 10 -40
6 0 10 18 10 40 0 29 4 40 15 40 8 0 15 5 15 10 0 6 -18 10 -40 10 -22 0 -40
-4 -40 -10z"/>
<path d="M1057 2102 c-22 -24 -21 -45 1 -65 24 -22 45 -21 65 1 21 23 22 46 1
66 -21 21 -47 20 -67 -2z m63 -21 c8 -16 6 -23 -12 -35 -25 -17 -48 -6 -48 24
0 35 43 43 60 11z"/>
<path d="M1161 2068 c1 -29 3 -45 6 -35 2 9 9 17 15 17 6 0 20 -8 31 -17 19
-17 20 -17 10 1 -8 14 -8 25 0 37 14 23 -7 49 -39 49 -22 0 -24 -4 -23 -52z
m54 23 c3 -5 1 -13 -5 -16 -15 -9 -43 3 -35 15 8 13 32 13 40 1z"/>
<path d="M1258 2113 c-2 -5 -1 -28 3 -53 l6 -45 1 53 c2 48 -2 63 -10 45z"/>
<path d="M1301 2069 c1 -46 3 -49 8 -20 l6 35 27 -32 c15 -18 28 -32 30 -32 2
0 4 23 6 50 1 30 -2 50 -8 50 -5 0 -10 -12 -10 -27 l0 -27 -30 29 -30 29 1
-55z"/>
<path d="M1418 2109 c-36 -21 -9 -89 36 -89 16 0 38 38 29 53 -8 14 -21 7 -19
-10 1 -12 -6 -18 -19 -18 -15 0 -20 7 -20 25 0 20 6 26 28 28 15 2 25 8 22 13
-8 12 -35 11 -57 -2z"/>
<path d="M3636 2104 c-21 -21 -20 -47 2 -67 23 -21 36 -21 52 -2 11 13 8 14
-19 9 -29 -6 -31 -5 -31 25 0 27 3 31 28 31 21 0 24 2 12 10 -20 13 -26 12
-44 -6z"/>
<path d="M3724 2095 c-15 -23 -15 -27 0 -50 19 -29 38 -32 60 -9 22 21 20 61
-3 74 -29 15 -39 13 -57 -15z m61 -25 c0 -18 -6 -26 -23 -28 -13 -2 -25 3 -28
12 -10 26 4 48 28 44 17 -2 23 -10 23 -28z"/>
<path d="M3824 2086 c-3 -19 -4 -41 -1 -48 3 -7 6 -1 6 15 1 35 10 34 43 -5
l27 -33 -1 55 c0 46 -2 50 -7 21 l-6 -35 -27 32 -27 32 -7 -34z"/>
<path d="M3930 2105 c-11 -13 -10 -18 6 -30 10 -8 22 -15 27 -15 8 0 10 -30 1
-30 -3 0 -14 5 -25 10 -11 6 -19 7 -19 1 0 -5 7 -12 16 -15 50 -19 69 18 27
51 -27 22 -27 23 -5 23 12 0 22 5 22 10 0 16 -36 12 -50 -5z"/>
<path d="M4011 2084 c-2 -83 61 -86 67 -3 2 24 0 40 -5 36 -9 -9 -10 -14 -12
-53 -2 -43 -35 -27 -42 21 l-6 40 -2 -41z"/>
<path d="M4102 2072 l-2 -52 40 2 c49 4 53 18 6 18 -34 0 -35 1 -39 43 -3 40
-4 39 -5 -11z"/>
<path d="M4301 2069 c1 -41 3 -47 8 -25 7 36 18 36 41 1 l17 -26 6 38 c9 53 9
65 -3 58 -5 -3 -10 -16 -10 -27 0 -21 -2 -20 -30 7 l-30 29 1 -55z"/>
<path d="M4404 2099 c-17 -19 -17 -23 -3 -47 15 -27 49 -37 56 -16 2 6 -7 10
-19 10 -33 -1 -33 48 0 52 12 2 20 8 17 13 -10 15 -31 10 -51 -12z"/>
<path d="M4481 2115 c0 -5 6 -19 14 -29 8 -11 16 -31 16 -45 l2 -26 4 25 c3
13 14 35 24 49 11 13 17 26 14 29 -3 3 -13 -5 -22 -17 l-16 -24 -18 24 c-10
13 -19 20 -18 14z"/>
<path d="M4221 2074 c-27 -45 -27 -62 0 -38 17 15 23 16 40 6 12 -8 19 -8 19
-2 0 12 -28 70 -34 70 -2 0 -13 -16 -25 -36z m29 -4 c0 -5 -4 -10 -10 -10 -5
0 -10 5 -10 10 0 6 5 10 10 10 6 0 10 -4 10 -10z"/>
<path d="M1050 1830 c-11 -11 -20 -26 -20 -34 0 -11 -22 -15 -101 -18 -99 -3
-101 -3 -130 -36 l-29 -32 0 -195 0 -195 28 -29 27 -29 200 -3 c110 -2 262 -2
338 -1 l139 2 29 29 29 29 0 202 0 202 -29 29 c-28 28 -33 29 -123 29 l-93 1
-20 32 -20 32 -102 3 c-92 2 -104 1 -123 -18z m208 -38 c3 -10 -17 -12 -91
-11 -78 1 -94 4 -90 16 7 19 174 15 181 -5z m244 -69 c13 -12 18 -30 18 -70
l0 -53 -98 0 c-96 0 -99 1 -127 30 -61 64 -189 63 -260 0 -20 -18 -89 -27
-182 -22 l-43 2 0 43 c0 23 7 53 16 65 15 22 16 22 336 22 285 0 323 -2 340
-17z m-254 -103 c53 -32 74 -75 69 -142 -4 -67 -28 -100 -94 -130 -99 -44
-213 32 -213 143 0 115 138 190 238 129z m-270 -95 c-21 -82 33 -180 117 -210
38 -13 33 -14 -104 -15 -187 0 -181 -5 -181 146 l0 113 88 3 c48 2 88 3 89 3
1 0 -3 -18 -9 -40z m542 -83 c0 -78 -4 -122 -12 -130 -8 -8 -56 -12 -152 -12
-134 0 -139 1 -111 16 81 42 123 117 111 201 l-6 43 85 0 85 0 0 -118z"/>
<path d="M1310 1704 c-10 -11 -11 -23 -4 -42 9 -26 12 -27 89 -27 77 0 80 1
89 27 16 45 -5 58 -89 58 -54 0 -76 -4 -85 -16z m140 -30 c0 -12 -10 -14 -47
-12 -66 4 -70 28 -4 28 39 0 51 -4 51 -16z"/>
<path d="M1103 1590 c-48 -29 -67 -63 -60 -112 12 -89 114 -136 190 -89 78 48
74 166 -7 205 -45 21 -84 20 -123 -4z m126 -46 c64 -82 -33 -179 -117 -117
-37 27 -42 86 -11 119 33 35 100 34 128 -2z"/>
<path d="M3570 1759 c-17 -4 -40 -15 -51 -25 -43 -38 -53 -74 -57 -202 -5
-140 4 -162 63 -162 20 0 39 -8 54 -24 12 -13 34 -26 48 -29 35 -6 81 10 94
34 9 18 23 19 198 19 187 0 188 0 211 -25 17 -18 34 -25 61 -25 25 0 47 8 67
25 17 14 42 25 57 25 55 0 65 14 65 93 0 110 -37 147 -149 147 l-60 0 -46 60
c-73 95 -64 93 -310 94 -118 1 -228 -2 -245 -5z m119 -43 c7 -8 11 -34 9 -58
l-3 -43 -92 -3 c-61 -2 -93 1 -93 8 0 24 30 79 51 94 29 20 112 21 128 2z
m382 -43 l52 -58 -103 -3 c-57 -1 -108 -1 -114 1 -7 3 -10 25 -8 55 4 46 6 51
30 55 80 12 88 9 143 -50z m-213 -5 l-3 -53 -67 -3 -68 -3 0 56 0 55 71 0 70
0 -3 -52z m2 -155 c0 -96 -5 -103 -61 -103 -36 0 -49 4 -49 15 0 8 -14 30 -31
50 -27 30 -37 35 -74 35 -36 0 -48 -5 -69 -31 -14 -17 -26 -39 -26 -50 0 -23
-35 -26 -44 -3 -8 21 -8 129 1 137 3 4 84 7 180 7 l173 0 0 -57z m454 36 c22
-18 26 -28 26 -75 0 -50 -2 -54 -24 -54 -18 0 -25 7 -29 30 -7 32 -56 70 -92
70 -32 0 -84 -37 -91 -65 -9 -35 -39 -45 -130 -45 l-74 0 0 48 c0 45 1 48 27
47 18 0 29 6 31 18 4 20 -27 24 -46 5 -9 -9 -12 -7 -12 9 0 12 6 24 13 26 6 3
94 6 193 6 169 1 183 0 208 -20z m-632 -96 c22 -20 23 -51 1 -75 -22 -25 -59
-23 -77 4 -22 31 -20 54 6 72 29 20 47 20 70 -1z m550 0 c22 -20 23 -42 2 -71
-18 -26 -50 -28 -76 -5 -22 20 -23 51 -1 75 20 22 51 23 75 1z"/>
<path d="M1800 1574 c30 -31 73 -67 94 -81 57 -37 257 -135 263 -129 3 2 -6
10 -19 17 -195 102 -285 159 -337 213 -19 20 -40 36 -45 36 -6 0 14 -25 44
-56z"/>
<path d="M3300 1574 c-51 -42 -144 -100 -300 -189 -82 -46 -40 -35 65 18 98
49 173 99 245 166 68 62 63 65 -10 5z"/>
<path d="M3320 1195 c0 -37 4 -65 10 -65 6 0 10 9 10 20 0 13 7 20 18 20 25 0
42 19 42 47 0 24 -26 43 -59 43 -19 0 -21 -6 -21 -65z m60 21 c0 -8 -7 -17
-16 -20 -23 -9 -24 -8 -24 14 0 13 7 20 20 20 11 0 20 -6 20 -14z"/>
<path d="M3420 1196 c0 -37 4 -66 10 -66 6 0 10 11 10 25 0 21 5 25 30 25 26
0 30 -4 30 -26 0 -14 4 -23 10 -19 13 8 13 112 1 120 -5 3 -11 -7 -13 -22 -2
-22 -9 -29 -30 -31 -24 -3 -28 0 -28 22 0 14 -4 28 -10 31 -6 4 -10 -18 -10
-59z"/>
<path d="M3574 1248 c-12 -5 -27 -22 -33 -36 -10 -21 -9 -30 7 -51 25 -34 58
-38 88 -10 31 29 30 54 -1 84 -27 28 -30 28 -61 13z m58 -43 c21 -48 -36 -77
-66 -33 -20 28 -4 58 30 58 16 0 28 -8 36 -25z"/>
<path d="M4146 1210 c-14 -30 -26 -61 -26 -67 0 -18 17 -16 24 2 3 8 17 15 31
15 16 0 25 -6 25 -15 0 -8 7 -15 15 -15 19 0 20 -3 -14 71 l-29 64 -26 -55z
m34 -15 c0 -8 -4 -15 -10 -15 -5 0 -10 7 -10 15 0 8 5 15 10 15 6 0 10 -7 10
-15z"/>
<path d="M4240 1196 c0 -37 4 -66 10 -66 6 0 10 8 10 18 0 10 12 22 30 29 22
8 30 18 30 37 0 28 -3 31 -47 41 l-33 7 0 -66z m65 25 c3 -6 -3 -15 -14 -20
-27 -15 -31 -14 -31 9 0 21 33 29 45 11z"/>
<path d="M4340 1201 c0 -33 5 -63 10 -66 6 -4 10 5 10 19 0 22 4 26 30 26 25
0 30 -4 30 -25 0 -14 5 -25 10 -25 6 0 10 26 10 59 0 33 -4 63 -10 66 -6 4
-10 -5 -10 -19 0 -22 -4 -26 -30 -26 -23 0 -30 5 -30 19 0 11 -4 23 -10 26 -6
4 -10 -16 -10 -54z"/>
<path d="M4450 1253 c0 -5 12 -26 25 -48 14 -22 25 -48 25 -57 0 -10 5 -18 10
-18 6 0 10 15 10 33 0 17 7 41 15 51 26 35 18 52 -11 25 l-26 -24 -18 23 c-18
22 -30 28 -30 15z"/>
<path d="M3660 1240 c0 -5 9 -10 20 -10 17 0 20 -7 20 -50 0 -27 5 -50 10 -50
6 0 10 23 10 50 0 38 4 50 15 50 8 0 15 5 15 10 0 6 -20 10 -45 10 -25 0 -45
-4 -45 -10z"/>
<path d="M3777 1232 c-36 -39 -7 -102 45 -102 25 0 58 36 58 63 0 50 -70 76
-103 39z m73 -21 c12 -23 5 -47 -16 -55 -21 -8 -42 3 -49 25 -14 42 44 68 65
30z"/>
<path d="M3904 1224 c-23 -34 -9 -75 29 -88 35 -13 62 2 62 35 0 26 -30 38
-48 20 -8 -8 -5 -11 11 -11 25 0 30 -18 6 -27 -9 -3 -25 3 -37 16 -29 28 -13
56 32 56 18 0 31 5 31 12 0 8 -13 13 -35 13 -26 0 -39 -6 -51 -26z"/>
<path d="M4020 1190 c0 -58 15 -84 22 -37 l3 22 23 -22 c30 -31 46 -29 26 2
-15 23 -15 25 0 31 19 7 21 35 4 52 -7 7 -27 12 -45 12 l-33 0 0 -60z m63 33
c9 -9 -12 -33 -29 -33 -8 0 -14 9 -14 20 0 19 28 28 43 13z"/>
<path d="M2696 1129 c-14 -33 -26 -65 -26 -70 0 -17 18 -9 23 11 6 24 55 28
63 5 6 -14 34 -22 34 -10 0 8 -60 125 -64 125 -2 0 -15 -27 -30 -61z m35 -22
c-13 -13 -26 -3 -16 12 3 6 11 8 17 5 6 -4 6 -10 -1 -17z"/>
<path d="M2350 1115 l0 -65 30 0 c35 0 80 38 80 67 0 37 -29 63 -71 63 l-39 0
0 -65z m59 35 c42 -22 31 -70 -15 -70 -21 0 -24 5 -24 33 0 46 8 54 39 37z"/>
<path d="M2487 1119 c-26 -61 -28 -91 -3 -56 7 9 23 17 36 17 13 0 29 -8 36
-17 7 -10 16 -15 20 -11 9 9 -37 120 -52 125 -6 2 -23 -24 -37 -58z m43 -4 c0
-8 -4 -15 -10 -15 -5 0 -10 7 -10 15 0 8 5 15 10 15 6 0 10 -7 10 -15z"/>
<path d="M2577 1174 c-11 -11 3 -24 24 -24 18 0 20 -6 18 -47 -2 -28 1 -47 6
-46 6 2 10 24 11 50 1 41 4 48 23 51 11 2 21 8 21 13 0 10 -93 13 -103 3z"/>
<path d="M870 1105 c0 -42 4 -64 10 -60 6 3 10 12 10 19 0 7 15 19 32 27 55
24 48 62 -14 73 l-38 7 0 -66z m60 20 c0 -8 -9 -15 -20 -15 -11 0 -20 7 -20
15 0 8 9 15 20 15 11 0 20 -7 20 -15z"/>
<path d="M973 1134 c4 -21 7 -52 7 -67 0 -33 20 -27 20 6 1 21 2 21 23 -5 13
-16 29 -28 36 -28 10 0 9 6 -5 21 -15 16 -16 24 -6 39 14 22 16 47 4 54 -4 2
-25 7 -46 11 l-39 8 6 -39z m51 10 c23 -9 20 -34 -3 -34 -22 0 -35 15 -26 30
7 12 8 12 29 4z"/>
<path d="M1189 1129 l-21 -43 -19 37 c-24 46 -45 50 -25 5 28 -66 39 -88 46
-88 9 0 53 120 47 127 -3 3 -15 -14 -28 -38z"/>
<path d="M1250 1143 c-26 -57 -39 -103 -29 -103 5 0 12 7 15 15 8 21 54 19 70
-2 11 -15 13 -15 14 -3 0 15 -46 120 -53 120 -2 0 -10 -12 -17 -27z m30 -31
c0 -13 -12 -22 -22 -16 -10 6 -1 24 13 24 5 0 9 -4 9 -8z"/>
<path d="M1320 1153 c0 -9 6 -13 15 -9 14 5 21 -12 16 -38 -3 -16 9 -56 17
-56 4 0 7 21 7 47 0 45 2 48 24 45 14 -2 22 1 19 8 -2 7 -25 13 -51 15 -36 2
-47 -1 -47 -12z"/>
<path d="M1468 1163 l-38 -4 0 -60 0 -59 40 0 c22 0 40 5 40 10 0 6 -13 10
-30 10 -20 0 -30 5 -30 15 0 9 9 15 25 15 14 0 25 5 25 10 0 6 -12 10 -26 10
-36 0 -29 34 9 38 15 2 27 8 27 13 0 5 -1 8 -2 7 -2 -1 -20 -3 -40 -5z"/>
<path d="M1080 1106 c0 -30 5 -58 10 -61 6 -4 10 17 10 54 0 34 -4 61 -10 61
-5 0 -10 -24 -10 -54z"/>
<path d="M3602 1058 c-7 -7 -12 -21 -12 -32 0 -11 -7 -27 -15 -36 -13 -14 -13
-19 0 -37 12 -16 25 -21 64 -20 39 1 48 4 40 13 -7 9 -7 19 1 33 11 22 1 28
-17 10 -18 -18 -35 -1 -20 21 20 33 -15 74 -41 48z m28 -23 c0 -8 -4 -15 -10
-15 -5 0 -10 7 -10 15 0 8 5 15 10 15 6 0 10 -7 10 -15z m0 -76 c0 -12 -27
-11 -35 1 -11 17 5 32 21 19 8 -6 14 -15 14 -20z"/>
<path d="M3791 995 c1 -66 2 -68 11 -32 10 38 10 38 26 16 l15 -22 19 23 18
22 0 -30 c0 -17 5 -34 10 -37 6 -4 10 18 10 59 0 36 -4 66 -8 66 -4 0 -16 -14
-26 -31 l-18 -31 -29 34 -28 33 0 -70z"/>
<path d="M3925 1013 c8 -57 33 -88 63 -79 12 4 24 17 28 29 10 27 11 97 3 97
-9 0 -19 -39 -19 -72 0 -23 -5 -28 -24 -28 -21 0 -25 6 -31 50 -4 28 -11 50
-17 50 -5 0 -7 -19 -3 -47z"/>
<path d="M4068 1049 c-28 -16 -22 -47 12 -64 37 -19 30 -39 -11 -30 -36 8 -37
1 -4 -21 24 -16 27 -16 45 1 29 26 25 51 -10 65 -37 15 -39 30 -4 30 16 0 24
5 22 13 -6 16 -29 19 -50 6z"/>
<path d="M4228 1045 c-35 -20 -44 -50 -23 -81 20 -31 37 -38 70 -30 36 9 31
27 -6 24 -21 -2 -35 3 -43 15 -17 26 5 52 43 51 35 -2 41 10 12 26 -24 12 -20
12 -53 -5z"/>
<path d="M4150 996 c0 -30 5 -58 10 -61 6 -4 10 17 10 54 0 34 -4 61 -10 61
-5 0 -10 -24 -10 -54z"/>
<path d="M2787 958 c-22 -49 -30 -58 -51 -58 -24 0 -26 3 -26 50 0 28 -4 50
-10 50 -5 0 -10 -10 -10 -22 0 -13 -3 -39 -6 -59 l-6 -37 51 -3 c28 -2 51 0
51 4 0 18 45 25 63 9 25 -22 28 -12 8 33 -10 22 -22 51 -28 65 -10 24 -11 23
-36 -32z m37 -23 c4 -10 -1 -15 -14 -15 -13 0 -18 5 -14 15 4 8 10 15 14 15 4
0 10 -7 14 -15z"/>
<path d="M1010 959 l0 -43 -38 37 c-21 20 -41 37 -45 37 -4 0 -7 -27 -7 -60 0
-33 4 -60 10 -60 6 0 10 19 10 43 l1 42 37 -43 c20 -23 40 -42 45 -42 11 0 8
118 -3 125 -6 4 -10 -11 -10 -36z"/>
<path d="M1189 995 c-9 -89 21 -146 64 -123 32 16 37 27 37 82 0 62 -17 50
-22 -14 -3 -40 -6 -45 -28 -45 -22 0 -25 5 -28 45 -3 39 -20 81 -23 55z"/>
<path d="M1976 981 c-24 -27 -17 -70 16 -94 23 -17 31 -19 53 -9 36 16 32 33
-7 25 -23 -4 -34 -2 -43 11 -26 35 17 84 50 56 10 -8 15 -8 20 1 19 30 -62 39
-89 10z"/>
<path d="M2100 980 c-27 -27 -25 -56 5 -85 29 -30 46 -31 73 -7 31 27 35 55
11 85 -25 32 -61 35 -89 7z m70 -20 c26 -26 12 -60 -25 -60 -33 0 -49 30 -29
58 19 27 29 27 54 2z"/>
<path d="M2230 934 c0 -45 3 -63 11 -58 7 4 9 21 6 43 l-6 36 40 -42 c22 -24
42 -43 44 -43 3 0 5 29 5 65 0 37 -4 65 -10 65 -5 0 -10 -17 -10 -37 l-1 -38
-34 38 c-20 20 -37 37 -40 37 -3 0 -5 -30 -5 -66z"/>
<path d="M2362 988 c-19 -19 -14 -36 18 -55 17 -9 30 -23 30 -30 0 -16 -5 -16
-30 -1 -26 16 -40 0 -16 -18 24 -17 48 -18 64 -2 23 23 13 48 -23 64 -40 16
-38 39 2 29 18 -4 24 -2 21 7 -6 18 -50 22 -66 6z"/>
<path d="M2460 951 c0 -74 38 -103 80 -61 25 25 29 110 5 110 -11 0 -15 -12
-15 -51 0 -47 -2 -50 -22 -47 -20 3 -23 10 -26 51 -4 62 -22 61 -22 -2z"/>
<path d="M2586 942 c-4 -35 -6 -66 -3 -69 9 -8 77 7 77 17 0 5 -12 10 -27 12
-26 3 -28 7 -33 53 l-6 50 -8 -63z"/>
<path d="M2880 935 c0 -37 4 -65 10 -65 6 0 10 19 10 43 l1 42 35 -40 c20 -22
33 -32 30 -22 -3 10 -6 29 -6 43 0 16 -4 22 -14 18 -9 -3 -21 5 -31 20 -27 41
-35 31 -35 -39z"/>
<path d="M2996 985 c-19 -20 -30 -59 -22 -80 9 -24 54 -41 74 -28 24 14 17 28
-14 28 -38 0 -53 28 -30 54 13 14 28 19 54 17 29 -3 39 -10 54 -37 10 -19 18
-42 18 -52 0 -10 5 -15 10 -12 6 3 10 18 10 33 0 15 9 38 20 52 11 14 20 28
20 33 0 15 -22 6 -41 -15 -18 -22 -19 -22 -34 -4 -19 26 -97 32 -119 11z"/>
<path d="M671 964 c-23 -30 -21 -60 8 -82 20 -16 73 -12 79 7 3 9 -2 11 -17 6
-33 -10 -61 3 -61 29 0 32 22 48 55 40 21 -5 27 -4 23 7 -2 8 -18 15 -35 17
-24 2 -36 -3 -52 -24z"/>
<path d="M795 976 c-24 -17 -23 -75 1 -93 60 -44 141 41 86 90 -22 20 -62 22
-87 3z m75 -26 c15 -28 -4 -60 -36 -60 -31 0 -54 41 -34 65 18 21 57 19 70 -5z"/>
<path d="M1061 964 c-27 -34 -26 -40 4 -69 26 -27 64 -32 83 -13 20 20 14 28
-13 18 -31 -12 -52 -4 -60 21 -9 28 13 51 46 47 16 -1 30 2 31 7 2 6 -13 11
-33 13 -30 3 -41 -2 -58 -24z"/>
<path d="M1310 981 c0 -5 10 -11 23 -13 18 -2 23 -11 28 -53 l6 -50 1 53 c2
38 6 52 16 52 8 0 18 5 21 10 4 6 -13 10 -44 10 -28 0 -51 -4 -51 -9z"/>
<path d="M1440 930 c0 -33 4 -60 10 -60 6 0 10 27 10 60 0 33 -4 60 -10 60 -6
0 -10 -27 -10 -60z"/>
<path d="M1490 930 c0 -33 4 -60 10 -60 6 0 10 17 10 38 l1 37 30 -37 c17 -21
35 -38 40 -38 5 0 9 27 9 60 0 33 -4 60 -10 60 -5 0 -10 -17 -10 -37 l-1 -38
-33 38 c-18 20 -36 37 -40 37 -3 0 -6 -27 -6 -60z"/>
<path d="M1630 968 c-25 -28 -26 -52 0 -78 35 -35 90 -21 90 22 0 13 -7 18
-27 17 -16 0 -22 -3 -15 -6 20 -8 14 -33 -8 -33 -12 0 -25 10 -32 25 -16 35 5
58 44 50 30 -7 40 8 12 19 -27 10 -43 7 -64 -16z"/>
<path d="M3970 780 c-8 -5 -12 -12 -9 -15 4 -3 12 1 19 10 14 17 11 19 -10 5z"/>
<path d="M3810 765 c0 -8 2 -15 4 -15 2 0 6 7 10 15 3 8 1 15 -4 15 -6 0 -10
-7 -10 -15z"/>
<path d="M4875 3160 c-3 -5 -1 -10 4 -10 6 0 11 5 11 10 0 6 -2 10 -4 10 -3 0
-8 -4 -11 -10z"/>
<path d="M310 3140 c10 -6 11 -10 3 -10 -7 0 -13 -5 -13 -11 0 -5 5 -7 11 -3
7 4 7 -1 -1 -16 -10 -18 -9 -25 4 -38 15 -15 16 -12 16 36 0 43 -3 52 -17 52
-15 0 -16 -2 -3 -10z"/>
<path d="M315 2840 c3 -5 8 -10 11 -10 2 0 4 5 4 10 0 6 -5 10 -11 10 -5 0 -7
-4 -4 -10z"/>
<path d="M322 2800 c0 -14 2 -19 5 -12 2 6 2 18 0 25 -3 6 -5 1 -5 -13z"/>
<path d="M313 2666 c-10 -11 -9 -15 2 -20 10 -4 15 1 15 14 0 23 -1 24 -17 6z"/>
<path d="M314 2621 c4 -5 0 -11 -6 -14 -10 -3 -9 -9 4 -22 16 -17 17 -16 16
13 -1 18 -5 32 -10 32 -5 0 -7 -4 -4 -9z"/>
<path d="M4896 943 c-6 -14 -5 -15 5 -6 7 7 10 15 7 18 -3 3 -9 -2 -12 -12z"/>
</g>
</svg>
